<?xml version="1.0" standalone="no"?>
<!DOCTYPE svg PUBLIC "-//W3C//DTD SVG 20010904//EN"
 "http://www.w3.org/TR/2001/REC-SVG-20010904/DTD/svg10.dtd">
<svg version="1.0" xmlns="http://www.w3.org/2000/svg"
 width="512.000000pt" height="512.000000pt" viewBox="0 0 512.000000 512.000000"
 preserveAspectRatio="xMidYMid meet">
<metadata>
Created by potrace 1.14, written by Peter Selinger 2001-2017
</metadata>
<g transform="translate(0.000000,512.000000) scale(0.100000,-0.100000)"
fill="#000000" stroke="none">
<path d="M2456 4769 c-228 -75 -379 -200 -433 -360 -26 -75 -29 -79 -61 -70
-76 21 -234 -10 -265 -51 -19 -25 -19 -28 -4 -52 10 -14 17 -27 17 -29 0 -3
-21 -14 -47 -25 -59 -26 -142 -98 -192 -166 -53 -74 -63 -100 -46 -123 11 -15
17 -16 33 -6 26 16 31 9 22 -31 -8 -37 3 -64 30 -74 18 -7 17 -10 -10 -53 -34
-56 -59 -127 -66 -189 -4 -37 -1 -51 16 -73 12 -15 26 -26 32 -24 7 1 11 -34
12 -103 1 -84 5 -112 19 -134 17 -26 20 -26 36 -12 25 23 28 21 35 -21 9 -48
45 -143 63 -164 17 -21 7 -29 -28 -22 -15 3 -51 0 -78 -7 -97 -23 -130 -93
-118 -244 20 -238 211 -459 400 -462 l59 -1 22 -54 c27 -66 62 -121 114 -181
l39 -46 -2 -160 -3 -160 -49 -49 c-28 -26 -74 -65 -104 -86 -30 -21 -72 -54
-94 -73 -68 -61 -155 -145 -168 -163 -6 -10 -48 -36 -93 -58 -44 -23 -98 -51
-120 -64 -115 -66 -206 -115 -307 -166 -168 -84 -231 -127 -266 -180 -17 -26
-32 -55 -32 -65 -5 -69 2 -107 31 -165 l19 -38 -39 -35 c-45 -40 -59 -70 -90
-195 -22 -88 -39 -130 -113 -267 l-36 -68 1974 0 1974 0 -20 48 c-11 26 -26
61 -34 77 -9 17 -38 86 -65 154 -59 147 -118 251 -172 300 -34 32 -37 39 -30
66 34 119 -16 251 -121 324 -74 51 -338 178 -554 266 -49 20 -112 50 -140 66
-29 16 -58 29 -66 29 -7 0 -20 15 -30 33 -30 54 -112 133 -202 193 l-86 56 6
51 c3 29 8 75 10 102 10 144 18 212 29 227 11 15 64 78 126 148 36 41 76 102
95 148 11 23 21 42 24 43 3 0 26 2 50 4 61 5 160 56 226 116 93 86 149 232
147 390 0 92 -12 129 -54 164 -29 25 -73 45 -99 45 -19 0 -20 4 -14 65 13 142
105 368 216 532 27 40 49 77 49 82 0 10 -16 15 -63 23 -14 2 -8 14 32 58 94
104 128 198 83 228 -31 20 -28 29 21 50 59 27 99 69 87 92 -5 9 -7 20 -4 23 8
8 -93 105 -127 123 l-30 15 41 30 c67 49 135 174 128 235 -4 34 -5 34 -118 -5
-105 -37 -183 -50 -280 -47 -62 2 -88 9 -150 38 -115 54 -218 86 -335 104 -61
9 -245 10 -300 1 -38 -6 -51 -9 -107 -23 -13 -3 -34 -7 -47 -10 -14 -3 -49
-16 -78 -30 -62 -28 -63 -28 -63 -11 0 17 60 78 113 114 57 38 69 51 62 63
-13 21 -123 7 -239 -31z"/>
</g>
</svg>
